<?xml version="1.0" encoding="UTF-8"?>
<svg id="Layer_12" data-name="Layer 12" xmlns="http://www.w3.org/2000/svg" xmlns:xlink="http://www.w3.org/1999/xlink" viewBox="0 0 512 512">
  <defs>
    <style>
      .cls-1 {
        fill: url(#linear-gradient);
      }

      .cls-1, .cls-2, .cls-3, .cls-4 {
        stroke-width: 0px;
      }

      .cls-2 {
        fill: url(#radial-gradient);
      }

      .cls-3 {
        fill: url(#linear-gradient-2);
      }

      .cls-4 {
        fill: #dff8ff;
      }
    </style>
    <radialGradient id="radial-gradient" cx="256" cy="-5704.04" fx="256" fy="-5704.04" r="200.83" gradientTransform="translate(0 2994.71) scale(1 .45)" gradientUnits="userSpaceOnUse">
      <stop offset="0" stop-color="#1eb4eb" stop-opacity=".6"/>
      <stop offset="1" stop-color="#1eb4eb" stop-opacity="0"/>
    </radialGradient>
    <linearGradient id="linear-gradient" x1="373.76" y1="373.77" x2="138.23" y2="138.25" gradientUnits="userSpaceOnUse">
      <stop offset="0" stop-color="#1eb4eb"/>
      <stop offset=".54" stop-color="#1eb4eb"/>
      <stop offset="1" stop-color="#92f4fe"/>
    </linearGradient>
    <linearGradient id="linear-gradient-2" x1="297.84" y1="281.21" x2="215.59" y2="198.96" gradientUnits="userSpaceOnUse">
      <stop offset="0" stop-color="#bce4ed"/>
      <stop offset=".57" stop-color="#fff"/>
      <stop offset="1" stop-color="#fff"/>
    </linearGradient>
  </defs>
  <path class="cls-4" d="m496.52,129.85c-13.43-49.48-64.89-100.93-114.37-114.37C351.81,7.92,311.17.13,256,0c-55.17.14-95.81,7.92-126.15,15.49C80.38,28.92,28.92,80.37,15.48,129.85,7.92,160.19.13,200.83,0,256c.14,55.17,7.92,95.81,15.49,126.15,13.44,49.48,64.89,100.93,114.37,114.37,30.34,7.57,70.98,15.35,126.15,15.49,55.16-.14,95.81-7.92,126.15-15.49,49.48-13.44,100.93-64.89,114.37-114.37,7.57-30.33,15.35-70.98,15.49-126.15-.14-55.17-7.92-95.81-15.49-126.15Z"/>
  <path class="cls-2" d="m444.68,366.21c-10.54-17.58-50.91-35.87-89.72-40.64-23.8-2.69-55.68-5.46-98.96-5.5-43.28.05-75.17,2.81-98.96,5.5-38.81,4.78-79.18,23.06-89.72,40.64-5.94,10.78-12.04,25.22-12.15,44.83.11,19.6,6.21,34.05,12.15,44.83,10.54,17.58,50.91,35.87,89.72,40.64,23.8,2.69,55.69,5.46,98.96,5.5,43.28-.05,75.16-2.82,98.96-5.5,38.82-4.77,79.18-23.06,89.72-40.64,5.93-10.78,12.04-25.22,12.15-44.83-.11-19.6-6.22-34.05-12.15-44.83Z"/>
  <g id="VERIFIED">
    <path class="cls-1" d="m411.29,222.28c-7.05-6.82-14.12-13.7-21.19-20.62-.2-9.59-.45-19.17-.75-28.76-.4-12.83-5.94-25.08-15.46-34.59-9.51-9.47-21.8-15.02-34.65-15.42-9.6-.3-19.21-.55-28.81-.75-6.92-7.05-13.8-14.09-20.63-21.12-9.18-9.44-21.11-14.71-33.8-14.7-12.69,0-24.62,5.28-33.78,14.7-6.84,7.04-13.73,14.1-20.66,21.16-9.6.2-19.2.44-28.8.74-26.45.9-49.21,23.61-50.11,50.02-.3,9.59-.55,19.17-.75,28.76-7.07,6.92-14.14,13.79-21.19,20.61-9.41,9.14-14.7,21.06-14.7,33.71,0,12.66,5.25,24.57,14.7,33.72,7.05,6.81,14.12,13.68,21.19,20.59.2,9.59.45,19.19.75,28.78.4,12.86,5.94,25.07,15.45,34.59,9.52,9.46,21.79,15.02,34.66,15.42,9.6.3,19.21.55,28.81.75,6.92,7.04,13.8,14.08,20.63,21.1,9.17,9.44,21.12,14.71,33.8,14.7,12.68,0,24.62-5.26,33.81-14.69,6.83-7.04,13.71-14.09,20.64-21.15,9.6-.2,19.2-.44,28.8-.74,26.44-.9,49.21-23.63,50.11-50.02.3-9.58.55-19.17.75-28.75,7.07-6.92,14.14-13.8,21.19-20.62,9.41-9.14,14.7-21.07,14.7-33.71,0-12.66-5.29-24.58-14.71-33.72Z"/>
    <path class="cls-3" d="m340.53,234.49c-28.64,29.76-57.74,60.19-86.35,90.37-4.72,4.98-11.24,7.81-18.09,7.81-.04,0-.08,0-.11,0-6.8-.03-13.33-2.84-18.11-7.78-15.3-15.79-30.69-31.58-46.04-47.22-9.81-9.99-9.58-25.77.51-35.44,10.08-9.68,26.1-9.55,35.83.45,9.14,9.38,18.31,18.79,27.48,28.22,22.72-23.81,45.55-47.73,68.02-71.33,9.54-10.04,25.45-10.2,35.68-.51,10.23,9.68,10.81,25.46,1.19,35.44Z"/>
  </g>
</svg>
